<svg id="fi_5873503" height="512" viewBox="0 0 128 128" width="512" xmlns="http://www.w3.org/2000/svg"><path d="m64 0a64 64 0 1 0 64 64 64.005 64.005 0 0 0 -64-64zm0 116.825a52.825 52.825 0 1 1 52.825-52.825 52.882 52.882 0 0 1 -52.825 52.825z" fill="#ef6060"></path><path d="m128 64a64.022 64.022 0 0 1 -94.5 56.28 64.016 64.016 0 0 0 57.09-114.51 64.029 64.029 0 0 1 37.41 58.23z" opacity=".08"></path><circle cx="63.996" cy="64" fill="#e1e6ea" r="52.825"></circle><g fill="#b9c2d2"><path d="m64 25.1a1.015 1.015 0 0 1 -1.015-1.016v-4.684a1.016 1.016 0 1 1 2.031 0v4.683a1.015 1.015 0 0 1 -1.016 1.017z"></path><path d="m35.773 36.793a1.013 1.013 0 0 1 -.718-.3l-3.311-3.311a1.016 1.016 0 0 1 1.436-1.437l3.312 3.312a1.016 1.016 0 0 1 -.719 1.734z"></path><path d="m24.081 65.02h-4.681a1.016 1.016 0 0 1 0-2.032h4.683a1.016 1.016 0 1 1 0 2.032z"></path><path d="m32.462 96.559a1.017 1.017 0 0 1 -.718-1.735l3.311-3.311a1.016 1.016 0 1 1 1.437 1.436l-3.312 3.312a1.013 1.013 0 0 1 -.718.298z"></path><path d="m64 109.622a1.015 1.015 0 0 1 -1.016-1.016v-4.683a1.016 1.016 0 1 1 2.031 0v4.683a1.015 1.015 0 0 1 -1.015 1.016z"></path><path d="m95.538 96.559a1.013 1.013 0 0 1 -.718-.3l-3.312-3.312a1.016 1.016 0 1 1 1.437-1.436l3.311 3.311a1.017 1.017 0 0 1 -.718 1.735z"></path><path d="m108.6 65.02h-4.683a1.016 1.016 0 0 1 0-2.032h4.683a1.016 1.016 0 0 1 0 2.032z"></path><path d="m92.227 36.793a1.016 1.016 0 0 1 -.719-1.734l3.312-3.312a1.016 1.016 0 0 1 1.436 1.437l-3.311 3.311a1.013 1.013 0 0 1 -.718.298z"></path></g><path d="m64 59.534a1.015 1.015 0 0 1 -1.015-1.016v-12.8a1.016 1.016 0 1 1 2.031 0v12.8a1.016 1.016 0 0 1 -1.016 1.016z" fill="#2b375c"></path><path d="m94.522 65.02h-25.036a1.016 1.016 0 0 1 0-2.032h25.036a1.016 1.016 0 0 1 0 2.032z" fill="#2b375c"></path><path d="m70.5 64a6.5 6.5 0 1 1 -6.5-6.5 6.5 6.5 0 0 1 6.5 6.5z" fill="#a1a9b5"></path></svg>