<svg width="100" height="100" viewBox="0 0 100 100" fill="none" xmlns="http://www.w3.org/2000/svg">
<path d="M36.8999 69.7001C34.6999 69.7001 31.7999 69.3001 29.3999 67.6001C24.9999 64.5001 24.0999 58.3001 24.0999 58.0001C23.9999 57.5001 24.3999 57.0001 24.8999 56.9001C25.1999 56.8001 31.2999 55.6001 35.6999 58.7001C36.3999 59.2001 36.9999 59.7001 37.4999 60.3001C37.3999 59.2001 37.2999 58.1001 37.1999 56.9001C37.1999 56.4001 37.1999 55.8001 37.1999 55.3001C35.5999 54.9001 30.7999 53.5001 28.3999 49.7001C25.4999 45.1001 26.9999 39.1001 27.0999 38.8001C27.1999 38.3001 27.6999 38.0001 28.1999 38.1001C28.4999 38.1001 34.5999 39.3001 37.4999 43.8001C37.8999 44.5001 38.2999 45.2001 38.4999 45.9001C38.8999 44.3001 39.4999 42.7001 40.0999 41.2001C38.7999 40.3001 34.8999 37.2001 33.9999 32.6001C32.9999 27.3001 36.6999 22.2001 36.8999 22.0001C37.1999 21.6001 37.7999 21.5001 38.1999 21.8001C38.3999 21.9001 43.6999 25.3001 44.6999 30.6001C44.7999 31.4001 44.8999 32.2001 44.7999 32.9001C45.8999 31.4001 47.0999 30.1001 48.4999 28.7001C47.5999 27.3001 45.2999 23.0001 46.2999 18.5001C47.4999 13.2001 52.8999 10.0001 53.0999 9.90006C53.4999 9.60006 54.0999 9.80006 54.3999 10.2001C54.5999 10.4001 58.0999 15.6001 56.9999 20.9001C56.2999 24.3001 53.7999 26.8001 52.0999 28.2001C43.5999 35.5001 38.8999 45.9001 39.1999 56.7001C39.5999 69.8001 47.1999 81.7001 59.0999 87.9001C59.5999 88.1001 59.7999 88.7001 59.4999 89.2001C59.2999 89.5001 58.9999 89.7001 58.5999 89.7001C58.3999 89.7001 58.2999 89.7001 58.1999 89.6001C54.1999 87.5001 50.6999 84.9001 47.7999 81.8001C46.5999 82.5001 43.3999 84.3001 39.7999 84.3001C39.0999 84.3001 38.2999 84.2001 37.5999 84.1001C32.2999 82.9001 29.0999 77.5001 28.9999 77.3001C28.6999 76.9001 28.8999 76.3001 29.2999 76.0001C29.4999 75.8001 34.6999 72.3001 39.9999 73.4001C40.7999 73.6001 41.5999 73.9001 42.2999 74.2001C41.3999 72.6001 40.5999 70.9001 39.8999 69.2001C39.1999 69.6001 38.1999 69.7001 36.8999 69.7001ZM34.4999 60.3001C31.6999 58.3001 27.8999 58.5001 26.1999 58.7001C26.5999 60.4001 27.6999 64.0001 30.4999 66.0001C33.2999 68.0001 37.0999 67.8001 38.7999 67.6001C38.4999 65.9001 37.2999 62.3001 34.4999 60.3001ZM42.7999 31.1001C42.1999 27.7001 39.2999 25.2001 37.9999 24.1001C37.0999 25.6001 35.3999 29.0001 35.9999 32.4001C36.5999 35.8001 39.4999 38.3001 40.7999 39.4001C41.6999 37.8001 43.4999 34.5001 42.7999 31.1001ZM39.3999 75.6001C36.0999 74.9001 32.5999 76.5001 31.0999 77.3001C32.0999 78.7001 34.5999 81.6001 37.8999 82.4001C41.1999 83.1001 44.6999 81.5001 46.1999 80.7001C45.1999 79.2001 42.7999 76.3001 39.3999 75.6001ZM35.7999 44.9001C33.9999 42.0001 30.3999 40.7001 28.6999 40.3001C28.3999 42.0001 28.0999 45.8001 29.8999 48.7001C31.6999 51.6001 35.2999 52.9001 36.9999 53.3001C37.3999 51.6001 37.6999 47.8001 35.7999 44.9001ZM54.9999 20.7001C55.6999 17.4001 54.0999 13.9001 53.2999 12.4001C51.8999 13.4001 48.9999 15.9001 48.1999 19.2001C47.4999 22.5001 49.0999 26.0001 49.8999 27.5001C51.3999 26.5001 54.2999 24.0001 54.9999 20.7001Z" fill="#ffffff"/>
<path d="M58.2 81.7C53.9 80.8 51.3 76.4 51.2 76.2C50.9 75.8 51.1 75.2 51.5 74.9C51.7 74.8 55.8 71.9 60.1 72.8C60.5 72.9 61 73 61.4 73.2C60.8 72.1 60.3 71 59.9 69.9C59.4 70 58.7 70 57.8 70C56 70 53.7 69.7 51.7 68.3C48.1 65.8 47.4 60.8 47.4 60.6C47.3 60.1 47.7 59.6 48.2 59.5C48.4 59.5 53.3 58.4 56.9 61C57.3 61.3 57.6 61.6 57.9 61.9C57.8 61.2 57.8 60.5 57.8 59.8C57.8 59.4 57.8 59 57.8 58.7C56.4 58.4 52.8 57.2 50.8 54.2C48.4 50.5 49.7 45.6 49.7 45.4C49.8 44.9 50.3 44.6 50.8 44.7C51 44.7 56 45.6 58.3 49.3C58.5 49.7 58.7 50.1 58.9 50.5C59.2 49.5 59.6 48.5 60 47.5C58.8 46.7 55.9 44.2 55.2 40.7C54.4 36.4 57.4 32.3 57.5 32.2C57.8 31.8 58.4 31.7 58.8 32C59 32.1 63.2 34.8 64 39.1C64.1 39.5 64.1 40 64.1 40.4C64.9 39.5 65.7 38.5 66.5 37.7C65.7 36.4 64 33.1 64.8 29.6C65.7 25.3 70.1 22.7 70.3 22.6C70.7 22.3 71.3 22.5 71.6 22.9C71.7 23.1 74.6 27.2 73.7 31.5C73.1 34.2 71.1 36.2 69.7 37.4C63 43.1 59.3 51.3 59.6 59.8C60 70 66 79.5 75.4 84.3C75.9 84.5 76.1 85.1 75.8 85.6C75.6 85.9 75.3 86.1 74.9 86.1C74.7 86.1 74.6 86.1 74.5 86C71.4 84.4 68.6 82.3 66.3 79.9C65.3 80.5 62.8 81.8 60 81.8C59.4 81.9 58.8 81.8 58.2 81.7ZM55.8 62.6C53.8 61.2 51 61.2 49.6 61.3C49.9 62.7 50.8 65.3 52.9 66.8C54.9 68.2 57.7 68.2 59.1 68.1C58.7 66.7 57.8 64.1 55.8 62.6ZM62.3 39.4C61.8 36.9 59.8 35 58.7 34.1C58 35.3 56.8 37.8 57.3 40.3C57.8 42.8 59.8 44.7 60.9 45.6C61.5 44.3 62.7 41.8 62.3 39.4ZM56.7 50.4C55.4 48.3 52.8 47.3 51.4 46.9C51.2 48.3 51 51.1 52.4 53.2C53.8 55.3 56.3 56.3 57.7 56.7C57.9 55.2 58.1 52.5 56.7 50.4ZM71.9 31C72.4 28.6 71.3 26 70.7 24.8C69.5 25.7 67.5 27.5 67 29.9C66.5 32.3 67.6 34.9 68.2 36.1C69.3 35.3 71.4 33.5 71.9 31ZM59.7 74.8C57.3 74.3 54.7 75.4 53.5 76C54.4 77.2 56.2 79.2 58.6 79.7C61 80.2 63.6 79.1 64.8 78.5C64 77.4 62.2 75.3 59.7 74.8Z" fill="#ffffff"/>
</svg>
