<svg id="fi_5616370" height="512" viewBox="0 0 128 128" width="512" xmlns="http://www.w3.org/2000/svg"><path d="m27.672 61.055-16.921 66.708 50.761.362 36.276-67.07z" fill="#dbe2ea"></path><path d="m110.8 61.055h-13.012l-36.276 36.574-30.252 30.5h90.886a5.623 5.623 0 0 0 5.734-6.9l-10.537-55.53c-.489-2.587-3.418-4.644-6.543-4.644z" fill="#f9b958"></path><path d="m122.149 128.13h-90.891l3.851-3.881h82.417a5.621 5.621 0 0 0 5.73-6.908l-10.535-55.527a3.19 3.19 0 0 0 -.142-.539 6.2 6.2 0 0 1 4.765 4.419l10.534 55.528a5.621 5.621 0 0 1 -5.729 6.908z" fill="#f1a846" opacity=".5"></path><path d="m27.672 61.055h-10.472c-3.13 0-6.059 2.057-6.548 4.638l-10.532 55.53a5.623 5.623 0 0 0 5.734 6.9h25.406l30.252-30.5z" fill="#a5ceac"></path><path d="m35.088 124.269-3.83 3.861h-25.407a5.621 5.621 0 0 1 -5.729-6.908l.152-.8a5.609 5.609 0 0 0 5.577 3.85z" fill="#91b898" opacity=".5"></path><path d="m79.474-.13a31.526 31.526 0 0 0 -31.523 31.523c0 15.124 23.8 51.32 30.039 60.555a1.788 1.788 0 0 0 2.968 0c6.242-9.235 30.042-45.431 30.042-60.555a31.526 31.526 0 0 0 -31.526-31.523zm0 51.7a20.113 20.113 0 1 1 20.113-20.115 20.114 20.114 0 0 1 -20.113 20.113z" fill="#f05461"></path></svg>