<svg id="fi_10582513" enable-background="new 0 0 464 464" height="512" viewBox="0 0 464 464" width="512" xmlns="http://www.w3.org/2000/svg"><path d="m358.849 80.32-126.83-40.82-126.83 40.82-60.72 77.72v287.09h375.1v-287.08z" fill="#ff6d7a"></path><path d="m84.469 142.37v282.76h-40v-227.09c3.51-1.55 6.79-4.29 9.47-8.44z" fill="#ff8c95"></path><path d="m109.179 13.28 7.71 44.636-26.448 41.281-36.852 11.743 1.62-95.21c.14-8.73 7.26-15.73 15.99-15.73h22.22c7.78 0 14.44 5.6 15.76 13.28z" fill="#ff6d7a"></path><path d="m109.119 13h-11.92c-8.73 0-15.85 7-15.99 15.73l-.7 41.32-.88.29-26.04 40.6 1.62-95.21c.14-8.73 7.26-15.73 15.99-15.73h22.22c7.68 0 14.28 5.46 15.7 13z" fill="#ff8c95"></path><path d="m444.579 425.13c25.88 0 25.86 38.87 0 38.87h-425.12c-10.738 0-19.44-8.7-19.44-19.44 0-10.73 8.7-19.43 19.44-19.43z" fill="#befa91"></path><path d="m462.999 438.13h-416.54c-13.493 0-22.751 13.353-18.35 25.87h-8.65c-10.739 0-19.44-8.7-19.44-19.44 0-10.73 8.7-19.43 19.44-19.43h425.12c10.04 0 16.18 5.84 18.42 13z" fill="#daffbf"></path><path d="m331.079 277.9v147.23h-198.16v-147.23c0-8.83 7.16-16 16-16h166.16c8.84 0 16 7.17 16 16z" fill="#cbe3fa"></path><path d="m331.079 277.9v4h-142.16c-8.84 0-16 7.17-16 16v127.23h-40v-147.23c0-8.83 7.16-16 16-16h166.16c8.84 0 16 7.17 16 16z" fill="#eef7ff"></path><path d="m314.569 425.13h-18.84l-55.71-60.98v60.98h-16v-61.01l-55.74 61.01h-18.84c0-5.892.235-2.19 71.73-81.61-71.112-79.003-71.73-75.712-71.73-81.62h18.84l55.74 61.01v-61.01h16v60.98l55.71-60.98h18.84c0 5.892-.234 2.191-71.73 81.61 71.111 79.003 71.73 75.712 71.73 81.62z" fill="#9ec7f0"></path><path d="m276.619 177.5c23.9 0 23.88 35.89 0 35.89h-89.2c-23.9 0-23.88-35.89 0-35.89z" fill="#cbe3fa"></path><path d="m293.629 189.5h-77.21c-14.62 0-20.3 13.46-17.01 23.89h-11.99c-23.9 0-23.88-35.89 0-35.89h89.2c9.27 0 14.94 5.39 17.01 12z" fill="#eef7ff"></path><path d="m265.289 144.23v33.27h-66.54v-33.27c0-44.28 66.54-44.3 66.54 0z" fill="#e84857"></path><path d="m446.049 166.46c15.113 23.564-20.392 47.231-35.95 23.14l-51.25-79.28-126.83-50.82-126.83 50.82-51.25 79.28c-15.528 24.046-51.074.453-35.95-23.14l61.64-96.12 152.39-50.82 152.39 50.82z" fill="#cbe3fa"></path><path d="m257.299 28.52-153.99 50.82-62.28 96.12c-5.61 8.66-4.31 17.33.35 23.64-16.28 4.07-35.141-14.311-23.39-32.64l61.64-96.12 152.39-50.82c2.758.982-9.653-3.436 25.28 9z" fill="#eef7ff"></path></svg>