<svg width="512" height="512" viewBox="0 0 512 512" fill="none" xmlns="http://www.w3.org/2000/svg">
<g clip-path="url(#clip0_4_49)">
<path d="M237.795 467.816L44.1908 274.209C-14.5752 215.44 -14.8852 120.107 44.1908 61.028L100.829 4.38902C107.262 -2.04598 117.95 -1.31698 123.434 5.99502L219.826 134.52C224.305 140.491 223.71 148.847 218.433 154.125L160.823 211.737C154.138 218.422 154.127 229.263 160.823 235.959L276.043 351.182C282.728 357.865 293.568 357.876 300.266 351.181L357.876 293.57C363.155 288.291 371.511 287.699 377.481 292.177L506.004 388.57C513.302 394.044 514.061 404.726 507.61 411.175L450.971 467.815C392.098 526.689 296.745 526.767 237.795 467.816Z" fill="#695F5F"/>
</g>
<defs>
<clipPath id="clip0_4_49">
<rect width="512" height="512" fill="white"/>
</clipPath>
</defs>
</svg>
