<svg id="fi_10273344" enable-background="new 0 0 100 100" height="512" viewBox="0 0 100 100" width="512" xmlns="http://www.w3.org/2000/svg"><path d="m45.1 58.3h.2c.6 0 1.1-.4 1.3-1 1.2-6 3.7-11.5 7.3-15.9 1.5-1.8 3.2-3.5 5.1-5 3.2-2.6 6.8-4.6 10.7-6 .7-.2 1-1 .8-1.6-.2-.7-1-1-1.6-.8-4.2 1.5-8 3.6-11.5 6.4-1.5 1.2-3 2.6-4.3 4.1-.6-1-1-2.1-1.2-3.3-.8-4 .3-9.3 4.9-11.2 1.7-.7 3.8-1 6.1-1.3 5.3-.7 12.4-1.6 20.5-8.6.1 5.4-1.2 18.3-15 28.5-3.1 2.3-7.3 2.4-10.9.3-.6-.4-1.4-.1-1.8.5s-.1 1.4.5 1.8c2.1 1.2 4.4 1.8 6.6 1.8 2.5 0 5-.8 7.1-2.3 18.9-13.9 15.9-33.3 15.9-33.5-.1-.5-.4-.9-.9-1s-1 0-1.3.3c-8.3 8.1-15.4 9-21 9.7-2.5.3-4.8.6-6.8 1.5-5 2.1-7.7 7.9-6.4 14.1.3 1.7 1 3.2 1.8 4.6.1.1.1.2.2.3-3.5 4.6-6 10.2-7.2 16.3-.2.5.2 1.2.9 1.3z"></path><path d="m26.2 45c1.6 1.2 3.5 1.7 5.4 1.7 1.2 0 2.5-.2 3.7-.7.7-.3 1-1 .7-1.7s-1-1-1.7-.7c-2.4.9-4.8.7-6.7-.7-9.6-7.1-11-15.9-11.1-20.2 5.9 4.9 11 5.5 14.9 6 1.7.2 3.2.4 4.5.9 2.8 1.2 3.7 4.1 3.6 6.5 0 1.2-.3 2.4-.9 3.5-.9-1-1.9-1.9-2.9-2.7-2.5-2.1-5.4-3.7-8.6-4.8-.7-.2-1.4.1-1.6.8s.1 1.4.8 1.6c2.9 1 5.6 2.5 7.9 4.4 1.4 1.1 2.6 2.3 3.7 3.7 1.3 1.5 2.5 3.4 3.5 5.4.2.5.7.7 1.2.7.2 0 .4 0 .6-.1.6-.3.9-1.1.6-1.7-1-1.9-2-3.6-3.2-5.2 1-1.6 1.6-3.5 1.6-5.5.2-4-1.9-7.5-5.2-8.9-1.6-.7-3.3-.9-5.2-1.1-4.2-.5-9.3-1.2-15.5-7.1-.3-.3-.8-.4-1.3-.3s-.8.5-.9 1c.1.5-2.1 14.7 12.1 25.2z"></path><path d="m65.7 68.2v-3.5c0-2.1-1.7-3.9-3.9-3.9h-33.3c-2.1 0-3.9 1.7-3.9 3.9v3.5c0 2.1 1.7 3.9 3.9 3.9h33.3c2.2 0 3.9-1.7 3.9-3.9zm-38.5 0v-3.5c0-.7.6-1.3 1.3-1.3h33.3c.7 0 1.3.6 1.3 1.3v3.5c0 .7-.6 1.3-1.3 1.3h-33.3c-.7 0-1.3-.5-1.3-1.3z"></path><path d="m58.3 75.8-1.9 10.6c-.1.6-.6 1.1-1.3 1.1h-19.9c-.6 0-1.2-.5-1.3-1.1l-1.8-10.6c-.1-.7-.8-1.2-1.5-1-.7.1-1.2.8-1 1.5l1.8 10.6c.3 1.9 1.9 3.2 3.8 3.2h19.9c1.9 0 3.5-1.3 3.8-3.2l1.9-10.6c.1-.7-.3-1.4-1-1.5-.7-.2-1.4.3-1.5 1z"></path></svg>