<svg width="512" height="512" viewBox="0 0 512 512" fill="none" xmlns="http://www.w3.org/2000/svg">
<g clip-path="url(#clip0_4_45)">
<path d="M256 0C114.841 0 0 114.841 0 256C0 397.159 114.841 512 256 512C397.159 512 512 397.159 512 256C512 114.841 397.159 0 256 0ZM372.101 291.335H250.952C250.708 291.335 250.472 291.306 250.231 291.299C249.99 291.308 249.754 291.335 249.51 291.335C237.562 291.335 227.876 281.649 227.876 269.701V93.747C227.876 81.799 237.562 72.113 249.51 72.113C261.458 72.113 271.144 81.799 271.144 93.747V248.068H372.102C384.05 248.068 393.736 257.754 393.736 269.702C393.736 281.65 384.049 291.335 372.101 291.335Z" fill="#695F5F"/>
</g>
<defs>
<clipPath id="clip0_4_45">
<rect width="512" height="512" fill="white"/>
</clipPath>
</defs>
</svg>
