<svg width="275" height="92" viewBox="0 0 275 92" fill="none" xmlns="http://www.w3.org/2000/svg">
<path d="M274.374 66.8051C275.301 69.5571 275.333 70.7649 273.545 71.8138C264.7 77.0016 255.687 81.9618 247.23 87.7316C241.976 91.3159 238.153 90.8481 233.068 87.4018C224.605 81.6658 215.528 76.8353 206.132 71.2821C194.99 77.8869 183.565 84.6617 171.937 91.5553C165.743 87.9491 159.818 84.5676 153.963 81.0673C149.271 78.2633 144.637 75.3579 140.036 72.4058C138.378 71.3424 136.974 71.3415 135.297 72.3858C127.179 77.4429 119.028 82.4497 110.845 87.4027C108.648 88.7321 106.298 89.8074 103.718 91.157C91.5842 85.9308 81.1756 77.315 69.0039 71.346C63.1573 74.8353 57.3155 78.3263 51.4681 81.8101C46.7701 84.6087 42.0372 87.3524 37.3766 90.2131C35.5118 91.357 33.8436 91.1533 32.0966 90.0861C22.6183 84.2935 13.1245 78.5247 3.65897 72.7101C2.38712 71.9289 1.24689 70.9312 0.128571 70.0962C0.896045 67.4584 2.09748 67.0884 4.05089 68.2852C9.87547 71.8559 15.7449 75.3543 21.5895 78.8947C26.1085 81.632 30.6156 84.3904 35.1775 87.1697C44.1542 81.611 52.664 75.8723 61.6161 70.9357C69.8655 66.3866 68.2466 65.6292 76.7729 70.9459C85.4728 76.3712 94.3279 81.5498 103.554 87.1003C114.75 80.3099 126.107 73.4228 137.657 66.4168C148.96 73.2273 160.343 80.087 171.929 87.0683C183.358 80.1912 194.766 73.3259 206.249 66.4168C217.534 73.2766 228.622 80.0166 240.05 86.9632C251.613 81.0582 262.268 73.0263 274.374 66.8051Z" fill="rgb(214,100,66)"/>
<path d="M240.316 58.2469C237.58 56.701 234.588 55.1029 231.689 53.3523C224.231 48.848 216.821 44.266 209.381 39.7343C207.193 38.4021 205.314 38.1884 202.797 39.7973C194.016 45.409 184.992 50.6379 176.039 55.9773C174.724 56.7612 173.294 57.3542 171.719 58.1336C166.583 55.1806 161.375 52.2596 156.24 49.2144C150.804 45.9901 145.401 42.7064 140.058 39.3286C138.154 38.1244 136.742 38.4707 134.905 39.589C125.127 45.5397 115.251 51.3332 105.403 57.1697C104.824 57.5123 104.187 57.758 103.336 58.1646C97.4756 54.7722 91.5512 51.3834 85.6682 47.9234C81.2534 45.3259 76.8404 42.7174 72.5261 39.9591C70.0629 38.3839 67.946 38.4086 65.4398 39.9773C56.3197 45.6895 47.1053 51.251 37.9011 56.828C36.9034 57.4328 35.7423 57.7681 34.6166 58.246C24.0986 51.9517 13.6929 45.7425 3.31553 39.4857C2.30866 38.8782 1.25979 38.1134 0.650392 37.155C0.241967 36.5109 0.572655 35.3962 0.572655 33.6474C13.2067 39.5031 23.4654 47.9143 35.2982 53.8933C46.6513 46.9951 58.0053 40.0961 69.3849 33.1815C80.8349 40.1454 92.0566 46.9713 103.653 54.0239C114.87 47.1413 126.193 40.1929 137.721 33.1184C149.032 40.0312 160.239 46.8818 171.922 54.023C183.052 47.2299 194.39 40.3098 206.148 33.1331C217.224 39.9197 228.424 46.7813 240.046 53.9024C251.5 47.9024 262.348 40.2194 274.069 33.7278C275.009 37.1715 274.79 37.8147 272.459 39.2966C269.721 41.038 266.994 42.8005 264.194 44.436C256.382 48.9978 248.535 53.4986 240.316 58.2469Z" fill="rgb(214,100,66)"/>
<path d="M103.548 20.7776C114.925 13.8603 126.157 7.03158 137.682 0.0247679C149.061 6.95942 160.411 13.8768 171.909 20.8845C183.181 13.9964 194.396 7.14305 206.049 0.0219727C217.322 6.84242 228.71 13.7314 240.274 20.7283C246.069 17.292 251.726 13.8182 257.497 10.5482C263.058 7.39617 267.98 3.03615 274.285 0.941154C275.955 4.04032 273.946 5.21428 272.316 6.26781C269.306 8.2139 266.145 9.92791 263.053 11.7461C256.419 15.6474 249.794 19.5634 243.152 23.4482C242.131 24.0458 241.035 24.5173 240.064 25.0015C229.599 18.752 219.335 12.6177 209.065 6.49343C207 5.2618 205.241 5.19789 202.925 6.62683C192.744 12.9101 182.372 18.8854 171.837 25.1084C161.771 19.0499 151.67 12.9987 141.604 6.89271C139.034 5.33402 137.005 5.17414 134.131 7.00146C124.761 12.9631 115.067 18.4185 105.49 24.0559C104.908 24.3985 104.262 24.6324 103.506 24.9814C98.3545 22.0385 93.1347 19.1348 87.9944 16.097C82.5527 12.8799 77.131 9.62182 71.8162 6.20112C69.639 4.79951 67.8665 5.55692 66.0749 6.59672C62.9721 8.39844 59.9733 10.3774 56.8878 12.2112C49.8307 16.4057 42.7481 20.5556 35.3274 24.9293C33.9532 24.2687 32.2072 23.5816 30.6129 22.6387C21.6352 17.3249 12.6777 11.9772 3.75858 6.5656C2.48311 5.79181 1.36748 4.68898 0.367935 3.56882C0.109378 3.27828 0.430973 2.26503 0.748032 1.74245C0.936237 1.43084 1.72845 1.18875 2.08752 1.32945C3.67635 1.95073 5.29807 2.57385 6.74348 3.46286C14.463 8.20749 22.1259 13.0453 29.8253 17.821C31.4242 18.8123 33.099 19.6803 34.9638 20.7328C40.0748 17.6785 45.2176 14.6342 50.3314 11.5414C55.5959 8.35823 60.8861 5.21251 66.0574 1.88309C68.5572 0.274147 70.5206 0.537304 73.0002 2.11702C82.5114 8.17822 92.1744 14.0019 101.788 19.9023C102.357 20.2514 102.987 20.5008 103.548 20.7776Z" fill="rgb(214,100,66)"/>
</svg>
