<svg id="fi_11567355" enable-background="new 0 0 100 100" viewBox="0 0 100 100" xmlns="http://www.w3.org/2000/svg"><g><path d="m43.143 21.207c0-3.334-2.712-6.046-6.046-6.046s-6.046 2.712-6.046 6.046 2.712 6.046 6.046 6.046c3.333.001 6.046-2.712 6.046-6.046zm-9.512 0c0-1.911 1.555-3.465 3.466-3.465s3.465 1.554 3.465 3.465-1.554 3.466-3.465 3.466-3.466-1.555-3.466-3.466z"></path><path d="m89.355 14.664c-.399-.231-.89-.231-1.29-.001l-25.162 14.505-14.623-8.433c-.25-5.96-5.163-10.735-11.183-10.735-6.021 0-10.934 4.775-11.184 10.735l-15.267 8.805c-.4.231-.646.657-.646 1.118v58.052c0 .461.246.886.645 1.117s.89.231 1.29.001l25.162-14.505 25.162 14.505c.2.115.422.173.645.173s.445-.057.645-.173l25.805-14.878c.4-.23.646-.656.646-1.117v-58.052c0-.461-.246-.887-.645-1.117zm-52.258-2.083c4.757 0 8.627 3.87 8.627 8.627 0 10.504-6.278 18.292-8.627 20.837-2.349-2.545-8.627-10.333-8.627-20.837 0-4.758 3.87-8.627 8.627-8.627zm50.322 60.506-24.516 14.133-25.162-14.505c-.399-.231-.89-.231-1.289 0l-23.871 13.761v-55.073l13.415-7.737c1.049 12.63 9.834 20.811 10.231 21.174.246.226.559.338.871.338s.624-.113.871-.338c.397-.363 9.181-8.544 10.23-21.174l14.061 8.11c.398.231.89.231 1.289 0l23.872-13.761v55.072z"></path><path d="m78.138 54.415c.219 0 .44-.055.643-.173l2.795-1.611c.617-.356.829-1.145.473-1.762-.357-.618-1.145-.83-1.762-.473l-2.795 1.611c-.617.356-.829 1.145-.473 1.762.238.414.673.646 1.119.646z"></path><path d="m69.762 59.244c.219 0 .44-.055.643-.173l4.187-2.414c.617-.356.829-1.145.473-1.762s-1.147-.831-1.762-.473l-4.187 2.414c-.617.356-.829 1.145-.473 1.762.239.415.673.646 1.119.646z"></path><path d="m60.629 59.25c-.618-.357-1.407-.145-1.762.473-.356.617-.144 1.406.473 1.762l2.794 1.612c.199.115.422.173.645.173s.445-.057.645-.173l2.795-1.612c.617-.356.829-1.145.473-1.762-.357-.618-1.147-.83-1.762-.473l-2.15 1.24z"></path><path d="m56.441 56.836-4.187-2.414c-.617-.358-1.406-.144-1.762.473s-.144 1.406.473 1.762l4.187 2.414c.203.117.425.173.643.173.446 0 .88-.231 1.119-.646.356-.617.144-1.406-.473-1.762z"></path><path d="m48.066 52.007-2.794-1.611c-.618-.357-1.408-.145-1.762.473-.356.617-.144 1.406.473 1.762l2.794 1.611c.203.117.425.173.643.173.446 0 .88-.231 1.119-.646.356-.617.144-1.406-.473-1.762z"></path><path d="m40.904 47.707c-.504-.504-1.321-.504-1.825 0l-1.983 1.983-1.983-1.983c-.504-.504-1.321-.504-1.825 0s-.504 1.321 0 1.825l1.983 1.983-1.983 1.983c-.504.504-.504 1.321 0 1.825.252.252.582.378.912.378s.66-.126.912-.378l1.983-1.983 1.983 1.983c.252.252.582.378.912.378s.66-.126.912-.378c.504-.504.504-1.321 0-1.825l-1.983-1.983 1.983-1.983c.506-.505.506-1.321.002-1.825z"></path></g></svg>